<?xml version="1.0" encoding="UTF-8" standalone="no"?>
<svg
   width="851.96338"
   height="631.69159"
   viewBox="0 0 851.96338 631.69159"
   version="1.1"
   id="svg195"
   sodipodi:docname="IMG-20251031-WA0029.svg"
   xml:space="preserve"
   inkscape:export-filename="DollarLogo.svg"
   inkscape:export-xdpi="96"
   inkscape:export-ydpi="96"
   xmlns:inkscape="http://www.inkscape.org/namespaces/inkscape"
   xmlns:sodipodi="http://sodipodi.sourceforge.net/DTD/sodipodi-0.dtd"
   xmlns="http://www.w3.org/2000/svg"
   xmlns:svg="http://www.w3.org/2000/svg"><sodipodi:namedview
     id="namedview195"
     pagecolor="#ffffff"
     bordercolor="#000000"
     borderopacity="0.25"
     inkscape:showpageshadow="2"
     inkscape:pageopacity="0.0"
     inkscape:pagecheckerboard="0"
     inkscape:deskcolor="#d1d1d1" /><defs
     id="defs2" /><defs
     id="defs4" /><defs
     id="defs7" /><defs
     id="defs9" /><defs
     id="defs11" /><defs
     id="defs14" /><defs
     id="defs16" /><defs
     id="defs87" /><defs
     id="defs117" /><defs
     id="defs126" /><defs
     id="defs169" /><defs
     id="defs190" /><defs
     id="defs192" /><defs
     id="defs194" /><g
     id="g215"
     transform="translate(-61.042104,-42.218666)"><g
       id="g210"
       transform="translate(-32.148406,-152.75524)"
       inkscape:label="English"><path
         fill="#fdfdfd"
         d="m 174.94427,641.58199 c 14.856,-1.302 37.736,-0.482 51.878,4.104 17.855,5.79 33.46,17.777 41.99,34.671 8.092,16.026 8.015,34.157 2.355,50.906 -8.519,25.208 -35.551,51.725 -59.002,63.14 -11.224,5.463 -23.518,9.78 -35.386,13.673 -4.693,1.539 -9.514,2.677 -14.251,4.068 -6.303,1.851 -12.554,3.99 -18.9201,5.612 -7.1608,1.824 -43.676096,10.535 -48.215396,8.642 -0.712,-0.297 -1.0341,-0.845 -1.3168,-1.542 -2.1517,-5.305 0.0385,-13.929 2.1044,-19.029 6.379196,-15.749 17.131096,-11.098 28.587396,-16.255 1.5795,-0.711 2.9966,-1.597 4.0567,-2.994 3.7807,-4.985 13.0055,-29.87 15.8077,-37.18 4.6221,-10.177 8.5101,-21.399 13.1181,-31.8 3.206,-7.238 6.5,-18.302 10.931,-24.749 3.007,-4.377 14.608,-5.283 19.525,-5.609 -2.275,13.931 -25.641,83.808 -24.543,89.649 0.187,0.994 0.814,1.773 1.653,2.312 3.733,2.402 11.96,0.648 16.001,-0.248 21.565,-4.782 55.031,-21.597 66.864,-40.484 5.144,-8.21 6.488,-17.856 4.279,-27.275 -7.909,-33.722 -51.116,-34.253 -78.629,-30.57 -3.991,0.534 -7.958,1.152 -11.884,2.053 -3.876,0.889 -8.094,2.303 -12.063,2.545 -1.283,0.079 -1.805,0.105 -2.887,-0.559 -0.022,-0.18 -0.051,-0.36 -0.0662,-0.541 -0.2801,-3.431 12.3462,-36.266 14.6882,-39.029 3.035,-3.58 9.024,-3.216 13.325,-3.511 z"
         id="path171"
         style="fill:#2e0a05;fill-opacity:1" /><path
         id="path175"
         d="m 333.21955,685.10929 c -1.08611,-0.009 -2.20181,0.0253 -3.35156,0.0977 -42.13796,5.145 -72.42868,74.5004 -36.51172,104.5234 6.67599,5.58 15.08813,6.3433 23.45313,6.1113 12.43198,-1.147 25.38793,-6.6917 33.29492,-16.4297 12.52998,-15.4309 20.09764,-35.3458 17.68164,-55.3398 -1.386,-11.465 -4.70525,-24.428 -14.24024,-31.75 -6.55024,-5.0295 -12.72338,-7.1495 -20.32617,-7.2129 z m -2.01562,17.4531 c 28.55097,0.937 22.23551,59.6878 -10.93946,69.3868 -29.27697,0.3769 -23.04951,-60.2378 10.93946,-69.3868 z"
         style="fill:#2e0a05;fill-opacity:1" /><path
         id="path172"
         d="m 544.53791,685.45889 c -1.26511,-0.0455 -2.54989,10e-4 -3.85351,0.1524 -18.07699,3.273 -28.19377,11.6829 -39.09375,26.5039 -16.24699,22.0899 -21.55504,61.2098 3.58593,79.2168 7.253,5.195 16.45654,6.8617 24.89453,5.1367 5.2,-0.76 17.2073,-6.3352 18.9043,-6.0332 2.993,2.899 5.17207,5.0126 8.53906,7.5566 6.018,0.21 17.66646,-0.5448 17.43946,-8.8008 -0.168,-6.155 -5.02594,-11.906 -4.08594,-18.414 1.369,-7.024 3.7172,-15.4286 5.5332,-22.4746 l 9.82422,-39.4395 c 1.15,-4.539 4.08831,-13.3978 3.82031,-17.5078 -2.14499,-1.728 -16.7202,-1.0953 -20.0332,-0.8613 -0.731,1.926 -1.47069,3.8061 -2.05469,5.7851 -6.67012,-5.6402 -14.56413,-10.5018 -23.41992,-10.8203 z m -2.50586,18.375 c 28.25478,0.6991 20.45485,58.9593 -9.72265,68.4414 -30.24697,3.284 -26.07397,-55.9232 6.875,-68.3261 0.98693,-0.1009 1.93621,-0.1378 2.84765,-0.1153 z"
         style="fill:#2e0a05;fill-opacity:1" /><path
         fill="#fdfdfd"
         d="m 412.33127,643.71799 c 7.035,-0.132 13.627,-0.172 20.637,0.465 l -30.26,122.738 c 3.469,10.186 8.376,17.746 -2.329,26.174 -3.25,2.062 -7.738,3.075 -11.524,2.172 -12.674,-3.025 -12.188,-19.493 -10.255,-29.519 2.058,-10.67 5.177,-20.978 8.109,-31.404 l 9.948,-36.31 8.837,-32.745 c 1.658,-6.105 3.806,-16.504 6.837,-21.571 z"
         id="path181"
         style="fill:#2e0a05;fill-opacity:1" /><path
         fill="#fdfdfd"
         d="m 633.81727,679.42899 c 3.085,3.169 2.26,8.01 4.331,11.246 0.769,1.367 4.648,3.222 6.121,2.572 15.019,-6.625 23.583,-8.803 40.068,-7.566 1.072,8.139 -5.51,22.059 -8.752,30.233 -11.786,-8.671 -21.638,-7.967 -33.71,-0.061 -6,3.929 -5.824,5.921 -7.602,12.675 -3.071,11.663 -5.669,23.46 -8.449,35.2 -1.878,9.486 5.135,14.297 2.223,23.362 -1.04,2.872 -5.993,7.85 -8.935,8.632 -22.917,6.358 -21.78,-23.032 -16.867,-36.64 6.972,-19.308 19.652,-43.222 11.985,-63.81 6.841,-5.07 13.624,-9.737 19.587,-15.843 z"
         id="path182"
         style="fill:#2e0a05;fill-opacity:1" /><path
         fill="#fdfdfd"
         d="m 465.10027,643.86699 c 6.969,-0.259 13.177,-0.317 20.13,0.249 -6.88,32.369 -15.875,63.717 -23.048,95.981 -1.746,7.857 -4.577,15.857 -6.129,23.794 -1.392,7.116 4.719,12.85 2.974,20.417 -1.073,4.659 -3.35,6.836 -7.035,9.353 -5.158,2.614 -12.224,2.616 -16.558,-1.559 -6.89,-6.639 -6.096,-19.903 -3.933,-28.361 6.378,-24.95 13.312,-49.798 20.266,-74.594 1.926,-6.831 10.24,-42.152 13.333,-45.28 z"
         id="path183"
         style="fill:#2e0a05;fill-opacity:1" /></g><g
       id="g211"
       inkscape:label="Arabic"
       transform="translate(1687.8766,-91.962721)"><path
         fill="#fdfdfd"
         d="m -956.535,497 c 13.167,13.151 25.212,41.281 30.359,59.226 2.475,8.626 4.915,25.925 4.998,34.67 0.017,16.43 0.673,34.806 -16.305,43.194 -12.463,6.157 -28.347,4.978 -36.894,17.204 -6.373,9.115 -5.769,21.697 -8.032,32.006 -2.606,11.873 -8.816,31.49 -17.153,40.222 -3.103,3.243 -6.845,5.806 -10.99,7.528 -6.562,2.735 -13.702,3.48 -20.646,4.995 -10.499,2.291 -19.936,5.42 -30.802,5.603 5.46,-5.525 11.133,-6.974 17.67,-10.478 21.707,-11.636 42.187,-28.379 50.59,-52.342 5.824,-16.609 6.851,-38.225 19.129,-51.892 9.925,-11.05 27.354,-8.488 38.136,-16.928 20.578,-18.879 0.368,-60.13 -13.953,-75.618 0.76,3.476 1.149,5.464 1.469,8.984 0.803,1.844 6.267,28.742 6.16,29.95 -2.951,-1.584 -9.164,-21.5 -9.718,-25.902 -3.755,-13.326 -5.346,-36.608 -4.018,-50.422 z"
         id="path178-2"
         style="fill:#2e0a05;fill-opacity:1" /><path
         fill="#eae4e3"
         d="m -948.959,543.374 c 0.803,1.844 6.267,28.742 6.16,29.95 -2.951,-1.584 -9.164,-21.5 -9.718,-25.902 1.298,1.412 2.974,8.381 3.641,10.689 0.031,-1.44 -0.123,-14.656 -0.083,-14.737 z"
         id="path179-99"
         style="fill:#2e0a05;fill-opacity:1" /><path
         fill="#fdfdfd"
         d="m -909.944,507.679 c 10.383,5.679 25.172,34.851 29.874,46.098 2.985,7.138 8.306,22.91 9.822,30.674 2.771,14.187 5.388,29.593 6.219,44.087 1.679,29.262 -10.739,60.778 -36.879,76.018 -13.063,7.3 -36.694,11.147 -51.631,11.467 9.254,-4.585 18.672,-8.707 27.749,-13.118 7.68,-3.732 18.968,-13.064 25.184,-18.907 23.175,-23.477 31.997,-48.338 24.882,-80.837 -4.835,-22.08 -11.936,-33.723 -25.669,-51.076 1.884,7.752 3.253,20.397 4.311,28.549 2.213,17.055 5.399,31.18 9.621,47.827 l -2.262,4.34 c -1.585,-5.297 -4.607,-10.035 -6.155,-15.202 -3.058,-10.208 -6.113,-20.404 -8.398,-30.816 -1.226,-5.589 -1.835,-11.374 -2.978,-16.89 -2.224,-10.734 -4.78,-22.326 -5.005,-33.354 -0.183,-8.974 0.727,-19.743 1.315,-28.86 z"
         id="path180-7"
         style="fill:#2e0a05;fill-opacity:1" /><path
         fill="#fdfdfd"
         d="m -818.001,639.005 c -10.269,-11.863 -21.066,-17 -21.929,-34.876 -0.919,-19.026 12.135,-34.423 31.495,-34.642 21.283,-0.24 32.513,9.284 33.046,30.73 -0.342,4.834 -1.422,10.623 -7.396,5.095 -2.802,-7.355 -6.713,-11.755 -13.327,-15.718 -7.479,-4.481 -32.663,-1.868 -36.425,5.649 -1.102,9.258 25.836,13.936 14.536,43.762 z"
         id="path189-9"
         style="fill:#2e0a05;fill-opacity:1" /><path
         fill="#fdfdfd"
         d="m -781.07,624.468 c 5.2,-0.177 2.403,0.09 4.501,3.033 -0.351,1.545 -0.713,3.088 -1.085,4.629 -4.807,19.666 -17.35,36.559 -34.787,46.845 -4.349,2.623 -10.557,5.887 -15.312,7.277 -12.04,3.52 -31.343,3.167 -43.497,0.162 27.247,-7.49 82.662,-31.616 90.18,-61.946 z"
         id="path191-7"
         style="fill:#2e0a05;fill-opacity:1" /><path
         fill="url(#gradient_13)"
         d="m -775.389,600.217 c 1.075,7.885 0.377,19.626 -1.18,27.284 -2.098,-2.943 0.699,-3.21 -4.501,-3.033 0.719,-6.647 0.581,-12.847 -1.715,-19.156 5.974,5.528 7.054,-0.261 7.396,-5.095 z"
         id="path194-8"
         style="fill:#2e0a05;fill-opacity:1" /></g></g><g
     id="g213"
     inkscape:label="Icon"
     transform="matrix(1.2044195,0,0,1.2044195,-143.89565,-105.21285)"><ellipse
       style="fill:none;fill-opacity:1;fill-rule:evenodd;stroke:#2e0a05;stroke-width:3.374;stroke-dasharray:none;stroke-opacity:1"
       id="path205"
       cx="492.6402"
       cy="284.90439"
       rx="175.20813"
       ry="175.20831" /><ellipse
       style="fill:none;fill-opacity:1;fill-rule:evenodd;stroke:#2e0a05;stroke-width:5.524;stroke-dasharray:none;stroke-opacity:1"
       id="path205-7"
       cx="492.6402"
       cy="284.90439"
       rx="146.31853"
       ry="146.31866" /><ellipse
       style="fill:none;fill-opacity:1;fill-rule:evenodd;stroke:#2e0a05;stroke-width:15.2621;stroke-dasharray:7.32582, 15.2621;stroke-dashoffset:0;stroke-opacity:1"
       id="path205-7-6"
       ry="161.81398"
       rx="161.81381"
       cy="284.85886"
       cx="492.6127" /><g
       id="g208"
       style="display:inline;fill:#2e0a05;fill-opacity:1"
       inkscape:label="Stars"
       transform="matrix(0.80555463,0,0,0.80555463,-936.42176,146.44267)"><path
         style="display:inline;fill:#2e0a05;fill-opacity:1;stroke:none;stroke-width:0.25903"
         d="m 1912.1805,175.51009 c -2.8955,3.9207 -4.913,8.1098 -3.1084,12.9515 5.1541,-0.6945 7.6384,-4.6983 9.5841,-9.0659 1.9457,4.3676 4.4301,8.3714 9.5841,9.0659 1.8003,-4.9024 -0.2535,-8.9654 -3.1083,-12.9515 3.1299,0.7455 7.0098,0.6135 9.8431,-1.0605 0.8642,-0.5106 2.4256,-1.4031 2.4256,-2.5659 0,-1.1628 -1.5614,-2.0554 -2.4256,-2.5659 -2.8333,-1.674 -6.7132,-1.8061 -9.8431,-1.0605 2.034,-2.7542 3.9257,-5.769 3.8806,-9.3251 -0.011,-0.8887 -0.036,-2.8082 -0.9054,-3.3368 -0.9167,-0.5576 -2.7052,0.4036 -3.4933,0.8696 -3.0962,1.831 -4.5535,4.7547 -5.9577,7.9068 -1.9457,-4.3677 -4.43,-8.3714 -9.5841,-9.066 -1.8211,4.8857 0.2587,8.9727 3.1084,12.9515 -3.1595,-0.7525 -6.965,-0.5819 -9.8431,1.0476 -0.887,0.5021 -2.4256,1.3975 -2.4256,2.5787 0,1.163 1.5612,2.0554 2.4256,2.5661 2.8332,1.674 6.7131,1.806 9.8431,1.0605"
         id="path207-8-41-6"
         sodipodi:nodetypes="cccccssscssscccsssc" /><path
         style="display:inline;fill:#2e0a05;fill-opacity:1;stroke:none;stroke-width:0.25903"
         d="m 1900.2751,228.10962 c -4.1755,2.5142 -7.6425,5.61235 -7.8282,10.77609 5.0276,1.33067 8.855,-1.41757 12.324,-4.70821 0.1262,4.77982 0.8893,9.42949 5.3852,12.04357 3.5393,-3.84028 3.1967,-8.38005 2.0846,-13.15512 2.6063,1.88651 6.2414,3.24933 9.4997,2.78702 0.9938,-0.14102 2.7779,-0.36806 3.2229,-1.44235 0.4449,-1.07428 -0.656,-2.49646 -1.2591,-3.29882 -1.977,-2.63083 -5.511,-4.23765 -8.688,-4.74656 2.9332,-1.76617 5.8346,-3.82756 7.1538,-7.13023 0.3299,-0.82526 1.0414,-2.60822 0.4404,-3.42928 -0.6335,-0.86596 -2.6537,-0.66236 -3.5601,-0.53343 -3.5612,0.50676 -6.0265,2.65022 -8.53,5.02502 -0.1262,-4.77982 -0.8892,-9.42945 -5.3852,-12.04357 -3.5521,3.81689 -3.1947,8.38869 -2.0845,13.15516 -2.631,-1.9044 -6.2121,-3.203 -9.4947,-2.79903 -1.0116,0.12444 -2.7758,0.36298 -3.2278,1.45417 -0.4451,1.07447 0.6558,2.49639 1.259,3.299 1.9769,2.6308 5.5109,4.23752 8.688,4.74657"
         id="path207-8-41-6-2"
         sodipodi:nodetypes="cccccssscssscccsssc" /><path
         style="display:inline;fill:#2e0a05;fill-opacity:1;stroke:none;stroke-width:0.25903"
         d="m 1869.147,272.14928 c -4.8198,0.72492 -9.2085,2.26048 -11.3561,6.96012 4.1357,3.15334 8.7234,2.07897 13.1876,0.36635 -1.7126,4.46425 -2.7869,9.05203 0.3664,13.18762 4.7395,-2.19352 6.1603,-6.51882 6.9602,-11.35599 1.686,2.74032 4.5228,5.39048 7.71,6.21023 0.9721,0.25004 2.7073,0.72302 3.5295,-0.0992 0.8222,-0.82223 0.3493,-2.55747 0.099,-3.52953 -0.8197,-3.18714 -3.4698,-6.02405 -6.2102,-7.71001 3.3857,-0.50925 6.8552,-1.30341 9.3378,-3.84984 0.6206,-0.63618 1.9603,-2.01115 1.7193,-2.99969 -0.2539,-1.04248 -2.1983,-1.62747 -3.0851,-1.85523 -3.484,-0.89464 -6.5819,0.14227 -9.8036,1.37822 1.7126,-4.46425 2.7869,-9.05196 -0.3664,-13.18762 -4.7424,2.167 -6.1617,6.52759 -6.9601,11.35607 -1.702,-2.76628 -4.5136,-5.33647 -7.7008,-6.21943 -0.9823,-0.27217 -2.7034,-0.72691 -3.5386,0.10825 -0.8224,0.82237 -0.3495,2.55733 -0.099,3.52967 0.8197,3.18707 3.4699,6.02391 6.2103,7.71001"
         id="path207-8-41-6-4"
         sodipodi:nodetypes="cccccssscssscccsssc" /><path
         style="display:inline;fill:#2e0a05;fill-opacity:1;stroke:none;stroke-width:0.25903"
         d="m 1823.5352,300.92437 c -4.7303,-1.1747 -9.3726,-1.43553 -13.1551,2.08454 2.6141,4.49596 7.2637,5.259 12.0435,5.38515 -3.2906,3.46904 -6.0388,7.29647 -4.7082,12.32396 5.2182,-0.21281 8.1861,-3.66516 10.7761,-7.82802 0.5091,3.17694 2.1158,6.71098 4.7466,8.688 0.8025,0.60302 2.2245,1.70402 3.2988,1.25903 1.0743,-0.44498 1.3015,-2.22911 1.4424,-3.22289 0.4623,-3.25824 -0.9004,-6.89335 -2.787,-9.49967 3.3229,0.82518 6.8321,1.41917 10.1003,0.0166 0.8168,-0.35025 2.5806,-1.10791 2.7363,-2.11342 0.1643,-1.0603 -1.4081,-2.34483 -2.1402,-2.89461 -2.8765,-2.15982 -6.1354,-2.38733 -9.5849,-2.47839 3.2907,-3.46904 6.0389,-7.29638 4.7082,-12.32396 -5.2107,0.1872 -8.1907,3.67271 -10.7761,7.82811 -0.5137,-3.207 -2.1278,-6.6575 -4.7345,-8.69297 -0.8033,-0.62734 -2.2195,-1.70613 -3.3107,-1.25414 -1.0744,0.44506 -1.3015,2.22893 -1.4425,3.22297 -0.4624,3.25815 0.9005,6.89322 2.787,9.49967"
         id="path207-8-41-6-2-7"
         sodipodi:nodetypes="cccccssscssscccsssc" /><path
         style="display:inline;fill:#2e0a05;fill-opacity:1;stroke:none;stroke-width:0.25903"
         d="m 1770.3836,310.0542 c -3.9207,-2.8955 -8.1098,-4.913 -12.9515,-3.1084 0.6946,5.15409 4.6983,7.63839 9.066,9.58409 -4.3677,1.9457 -8.3714,4.4301 -9.066,9.5841 4.9024,1.8003 8.9655,-0.2535 12.9515,-3.1083 -0.7455,3.12991 -0.6135,7.0098 1.0605,9.8431 0.5106,0.8642 1.4031,2.4256 2.5659,2.4256 1.1628,0 2.0554,-1.5614 2.5659,-2.4256 1.674,-2.8333 1.8061,-6.71319 1.0605,-9.8431 2.7542,2.034 5.769,3.9257 9.3251,3.8806 0.8887,-0.011 2.8082,-0.036 3.3368,-0.90539 0.5576,-0.9167 -0.4036,-2.7052 -0.8696,-3.4933 -1.831,-3.0962 -4.7547,-4.5535 -7.9068,-5.9577 4.3677,-1.9457 8.3714,-4.43 9.066,-9.5841 -4.8857,-1.8211 -8.9727,0.2587 -12.9515,3.1084 0.7526,-3.1595 0.5819,-6.965 -1.0475,-9.8431 -0.5021,-0.887 -1.3976,-2.4256 -2.5787,-2.4256 -1.163,0 -2.0554,1.5612 -2.5661,2.4256 -1.674,2.8332 -1.806,6.7131 -1.0605,9.8431"
         id="path207-8-41-6-29"
         sodipodi:nodetypes="cccccssscssscccsssc" /><path
         style="display:inline;fill:#2e0a05;fill-opacity:1;stroke:none;stroke-width:0.25903"
         d="m 1717.7841,298.14885 c -2.5142,-4.17548 -5.6123,-7.64251 -10.7761,-7.82811 -1.3307,5.02754 1.4176,8.85492 4.7081,12.32392 -4.7797,0.12618 -9.4295,0.88928 -12.0434,5.38518 3.8402,3.53933 8.3799,3.19671 13.1551,2.08464 -1.8865,2.60635 -3.2494,6.24143 -2.787,9.49967 0.141,0.99381 0.368,2.7779 1.4423,3.22289 1.0743,0.44498 2.4965,-0.65598 3.2988,-1.25903 2.6309,-1.97702 4.2377,-5.51103 4.7466,-8.68801 1.7662,2.93316 3.8275,5.83458 7.1302,7.15377 0.8253,0.32993 2.6082,1.0414 3.4293,0.44046 0.866,-0.63353 0.6624,-2.65373 0.5334,-3.56017 -0.5067,-3.56121 -2.6502,-6.02642 -5.025,-8.52999 4.7798,-0.12614 9.4295,-0.88919 12.0436,-5.38514 -3.8169,-3.55215 -8.3887,-3.19471 -13.1552,-2.08454 1.9043,-2.63103 3.203,-6.21214 2.799,-9.49474 -0.1245,-1.01162 -0.3629,-2.77576 -1.4542,-3.22779 -1.0745,-0.44506 -2.4964,0.6558 -3.299,1.25896 -2.6308,1.97692 -4.2375,5.51097 -4.7466,8.688"
         id="path207-8-41-6-2-79"
         sodipodi:nodetypes="cccccssscssscccsssc" /><path
         style="display:inline;fill:#2e0a05;fill-opacity:1;stroke:none;stroke-width:0.25903"
         d="m 1673.7446,267.02078 c -0.725,-4.81978 -2.2605,-9.20851 -6.9602,-11.35606 -3.1533,4.13566 -2.0789,8.72337 -0.3663,13.18761 -4.4643,-1.71261 -9.052,-2.78691 -13.1876,0.36636 2.1935,4.73952 6.5188,6.16031 11.356,6.96019 -2.7404,1.68603 -5.3905,4.52287 -6.2103,7.71001 -0.25,0.97213 -0.723,2.7073 0.099,3.52952 0.8223,0.82223 2.5575,0.34931 3.5296,0.0992 3.1871,-0.81975 6.024,-3.46985 7.71,-6.21024 0.5092,3.38577 1.3034,6.85519 3.8498,9.33784 0.6362,0.62063 2.0112,1.96024 2.9997,1.71926 1.0425,-0.25392 1.6275,-2.19825 1.8552,-3.08504 0.8947,-3.48405 -0.1422,-6.58189 -1.3782,-9.80368 4.4643,1.71262 9.052,2.78699 13.1876,-0.36635 -2.167,-4.74242 -6.5276,-6.16173 -11.356,-6.96012 2.7662,-1.70193 5.3364,-4.51353 6.2194,-7.70082 0.2722,-0.98224 0.7269,-2.70341 -0.1083,-3.53857 -0.8223,-0.82236 -2.5573,-0.34945 -3.5296,-0.0994 -3.1871,0.81968 -6.024,3.46985 -7.71,6.21024"
         id="path207-8-41-6-4-1"
         sodipodi:nodetypes="cccccssscssscccsssc" /><path
         style="display:inline;fill:#2e0a05;fill-opacity:1;stroke:none;stroke-width:0.25903"
         d="m 1644.9694,221.4089 c 1.1747,-4.73032 1.4356,-9.3726 -2.0845,-13.15516 -4.496,2.61411 -5.259,7.26375 -5.3851,12.04357 -3.4691,-3.29065 -7.2965,-6.03884 -12.324,-4.70822 0.2128,5.21817 3.6651,8.18603 7.828,10.77613 -3.1769,0.50901 -6.711,2.11574 -8.688,4.74657 -0.603,0.80244 -1.704,2.22453 -1.259,3.29882 0.445,1.07428 2.2291,1.30142 3.2229,1.44234 3.2582,0.46232 6.8933,-0.90041 9.4996,-2.78702 -0.8251,3.32293 -1.4191,6.83217 -0.017,10.10032 0.3502,0.81684 1.1079,2.58066 2.1134,2.73631 1.0603,0.16435 2.3448,-1.40811 2.8946,-2.14023 2.1598,-2.87649 2.3873,-6.13531 2.4784,-9.58484 3.469,3.29064 7.2964,6.03888 12.324,4.70822 -0.1872,-5.21071 -3.6727,-8.1907 -7.8281,-10.7761 3.207,-0.51377 6.6575,-2.12778 8.6929,-4.73455 0.6274,-0.80332 1.7062,-2.21945 1.2542,-3.31065 -0.4451,-1.07447 -2.229,-1.30149 -3.223,-1.44253 -3.2581,-0.46235 -6.8932,0.90047 -9.4997,2.78702"
         id="path207-8-41-6-2-7-3"
         sodipodi:nodetypes="cccccssscssscccsssc" /><path
         style="display:inline;fill:#2e0a05;fill-opacity:1;stroke:none;stroke-width:0.25903"
         d="m 1635.8395,168.2573 c 2.8955,-3.9207 4.913,-8.1098 3.1084,-12.9515 -5.1541,0.6946 -7.6384,4.6983 -9.5841,9.066 -1.9457,-4.3677 -4.4301,-8.3714 -9.5841,-9.066 -1.8003,4.9024 0.2535,8.9655 3.1083,12.9515 -3.1299,-0.7455 -7.0098,-0.6135 -9.8431,1.0605 -0.8642,0.5106 -2.4256,1.4031 -2.4256,2.5659 0,1.1628 1.5614,2.0554 2.4256,2.5659 2.8333,1.674 6.7132,1.8061 9.8431,1.0605 -2.034,2.7542 -3.9257,5.769 -3.8806,9.3251 0.011,0.8887 0.036,2.8082 0.9054,3.3368 0.9167,0.5576 2.7052,-0.4036 3.4933,-0.8696 3.0962,-1.831 4.5535,-4.7547 5.9577,-7.9068 1.9457,4.3677 4.43,8.3714 9.5841,9.066 1.8211,-4.8857 -0.2587,-8.9727 -3.1084,-12.9515 3.1595,0.7526 6.965,0.5819 9.8431,-1.0475 0.887,-0.5021 2.4256,-1.3976 2.4256,-2.5787 0,-1.163 -1.5612,-2.0554 -2.4256,-2.5661 -2.8332,-1.674 -6.7131,-1.806 -9.8431,-1.0605"
         id="path207-8-41-6-7"
         sodipodi:nodetypes="cccccssscssscccsssc" /><path
         style="display:inline;fill:#2e0a05;fill-opacity:1;stroke:none;stroke-width:0.25903"
         d="m 1647.745,115.65784 c 4.1754,-2.51419 7.6425,-5.61235 7.8281,-10.77609 -5.0276,-1.33066 -8.8549,1.41757 -12.324,4.70821 -0.1261,-4.77981 -0.8893,-9.42949 -5.3851,-12.043567 -3.5394,3.840277 -3.1968,8.380057 -2.0847,13.155117 -2.6063,-1.88651 -6.2414,-3.24933 -9.4996,-2.78701 -0.9938,0.14102 -2.7779,0.36806 -3.2229,1.44234 -0.445,1.07429 0.656,2.49647 1.259,3.29882 1.977,2.63083 5.511,4.23765 8.688,4.74657 -2.9331,1.76617 -5.8346,3.82756 -7.1538,7.13022 -0.3299,0.82526 -1.0413,2.60822 -0.4404,3.42929 0.6335,0.86596 2.6537,0.66235 3.5602,0.53342 3.5612,-0.50676 6.0264,-2.65022 8.53,-5.02502 0.1261,4.77982 0.8891,9.42946 5.3851,12.04357 3.5522,-3.81689 3.1947,-8.38869 2.0845,-13.15516 2.631,1.9044 6.2122,3.203 9.4947,2.79903 1.0117,-0.12444 2.7758,-0.36298 3.2278,-1.45417 0.4451,-1.07447 -0.6558,-2.49639 -1.2589,-3.299 -1.977,-2.6308 -5.511,-4.23752 -8.688,-4.74657"
         id="path207-8-41-6-2-8"
         sodipodi:nodetypes="cccccssscssscccsssc" /><path
         style="display:inline;fill:#2e0a05;fill-opacity:1;stroke:none;stroke-width:0.25903"
         d="m 1678.873,71.618246 c 4.8198,-0.724925 9.2085,-2.260477 11.3561,-6.96012 -4.1357,-3.153344 -8.7234,-2.078967 -13.1876,-0.366355 1.7126,-4.464248 2.7869,-9.052027 -0.3664,-13.187612 -4.7395,2.193514 -6.1603,6.518816 -6.9602,11.355992 -1.686,-2.740322 -4.5228,-5.390489 -7.71,-6.210238 -0.9721,-0.250033 -2.7073,-0.723017 -3.5295,0.09921 -0.8222,0.822224 -0.3493,2.557464 -0.099,3.529524 0.8197,3.187142 3.4698,6.024055 6.2102,7.71001 -3.3858,0.509258 -6.8552,1.303409 -9.3378,3.849841 -0.6207,0.636184 -1.9603,2.011153 -1.7193,2.999688 0.2539,1.042488 2.1983,1.627478 3.085,1.855237 3.4841,0.894632 6.5819,-0.142268 9.8037,-1.37822 -1.7126,4.464248 -2.787,9.051956 0.3664,13.187613 4.7424,-2.166999 6.1617,-6.527585 6.9601,-11.356063 1.7019,2.766273 4.5135,5.336465 7.7008,6.21943 0.9823,0.272166 2.7034,0.726906 3.5386,-0.108257 0.8224,-0.822365 0.3494,-2.557323 0.099,-3.529665 -0.8196,-3.187072 -3.4698,-6.023914 -6.2102,-7.710011"
         id="path207-8-41-6-4-8"
         sodipodi:nodetypes="cccccssscssscccsssc" /><path
         style="display:inline;fill:#2e0a05;fill-opacity:1;stroke:none;stroke-width:0.25903"
         d="m 1724.4849,42.843104 c 4.7303,1.174708 9.3726,1.435538 13.1552,-2.084531 -2.6141,-4.495957 -7.2638,-5.259004 -12.0436,-5.385152 3.2907,-3.469037 6.0389,-7.296472 4.7082,-12.32396 -5.2181,0.212805 -8.186,3.665148 -10.7761,7.828015 -0.509,-3.176942 -2.1157,-6.710988 -4.7466,-8.688005 -0.8024,-0.603019 -2.2245,-1.704021 -3.2988,-1.259037 -1.0743,0.444984 -1.3014,2.229113 -1.4423,3.222889 -0.4624,3.25824 0.9004,6.893353 2.787,9.499676 -3.3229,-0.825186 -6.8322,-1.419176 -10.1003,-0.01665 -0.8169,0.350253 -2.5807,1.10791 -2.7363,2.113417 -0.1644,1.060304 1.4081,2.344828 2.1402,2.894608 2.8765,2.159824 6.1353,2.387343 9.5848,2.4784 -3.2906,3.469037 -6.0389,7.29638 -4.7082,12.32396 5.2107,-0.187197 8.1907,-3.672708 10.7761,-7.828107 0.5138,3.207005 2.1278,6.657505 4.7346,8.69298 0.8033,0.627336 2.2194,1.706125 3.3106,1.254138 1.0745,-0.44506 1.3015,-2.228928 1.4425,-3.222966 0.4624,-3.258147 -0.9004,-6.893222 -2.787,-9.499675"
         id="path207-8-41-6-2-7-6"
         sodipodi:nodetypes="cccccssscssscccsssc" /><path
         style="display:inline;fill:#2e0a05;fill-opacity:1;stroke:none;stroke-width:0.25903"
         d="m 1777.6364,33.713294 c 3.9207,2.8955 8.1098,4.913 12.9515,3.1084 -0.6946,-5.15409 -4.6983,-7.63839 -9.066,-9.58409 4.3677,-1.9457 8.3714,-4.4301 9.066,-9.5841 -4.9024,-1.8003 -8.9655,0.2535 -12.9515,3.1083 0.7455,-3.12991 0.6135,-7.0098 -1.0605,-9.8431 -0.5106,-0.8642 -1.4031,-2.4256002 -2.5659,-2.4256002 -1.1628,0 -2.0554,1.5614002 -2.5659,2.4256002 -1.674,2.8333 -1.8061,6.71319 -1.0605,9.8431 -2.7542,-2.034 -5.769,-3.9257 -9.3251,-3.8806 -0.8887,0.011 -2.8082,0.036 -3.3368,0.90539 -0.5576,0.9167 0.4036,2.7052 0.8696,3.4933 1.831,3.0962 4.7547,4.5535 7.9068,5.9577 -4.3677,1.9457 -8.3714,4.43 -9.066,9.5841 4.8857,1.8211 8.9727,-0.2587 12.9515,-3.1084 -0.7526,3.1595 -0.5819,6.965 1.0475,9.8431 0.5021,0.887 1.3976,2.4256 2.5787,2.4256 1.163,0 2.0554,-1.5612 2.5661,-2.4256 1.674,-2.8332 1.806,-6.7131 1.0605,-9.8431"
         id="path207-8-41-6-29-8"
         sodipodi:nodetypes="cccccssscssscccsssc" /><path
         style="display:inline;fill:#2e0a05;fill-opacity:1;stroke:none;stroke-width:0.25903"
         d="m 1830.236,45.618686 c 2.5142,4.175481 5.6123,7.642508 10.7761,7.828116 1.3306,-5.027579 -1.4176,-8.854924 -4.7082,-12.323964 4.7798,-0.126144 9.4295,-0.889279 12.0435,-5.385141 -3.8402,-3.539329 -8.38,-3.196748 -13.1551,-2.084635 1.8865,-2.606359 3.2494,-6.241433 2.787,-9.499673 -0.141,-0.993815 -0.368,-2.777906 -1.4423,-3.222891 -1.0743,-0.444984 -2.4965,0.655977 -3.2988,1.259034 -2.6309,1.977015 -4.2377,5.511022 -4.7466,8.688001 -1.7662,-2.933159 -3.8276,-5.834576 -7.1302,-7.153771 -0.8253,-0.329929 -2.6082,-1.041393 -3.4293,-0.440459 -0.866,0.633536 -0.6624,2.65373 -0.5334,3.56017 0.5067,3.561209 2.6502,6.026422 5.025,8.529991 -4.7798,0.126144 -9.4295,0.889195 -12.0436,5.385141 3.8169,3.552155 8.3887,3.194708 13.1552,2.084542 -1.9044,2.630989 -3.203,6.212137 -2.7991,9.494699 0.1245,1.011626 0.363,2.7758 1.4542,3.227788 1.0745,0.445062 2.4964,-0.655792 3.299,-1.258957 2.6308,-1.976922 4.2375,-5.510967 4.7466,-8.688001"
         id="path207-8-41-6-2-79-4"
         sodipodi:nodetypes="cccccssscssscccsssc" /><path
         style="display:inline;fill:#2e0a05;fill-opacity:1;stroke:none;stroke-width:0.25903"
         d="m 1874.2755,76.746791 c 0.7249,4.819782 2.2605,9.208511 6.9601,11.356065 3.1534,-4.135656 2.079,-8.723365 0.3664,-13.187613 4.4642,1.712613 9.052,2.786921 13.1876,-0.366351 -2.1935,-4.739525 -6.5188,-6.160315 -11.356,-6.960194 2.7403,-1.686025 5.3905,-4.522867 6.2102,-7.710009 0.2501,-0.972131 0.723,-2.7073 -0.099,-3.529524 -0.8222,-0.822224 -2.5574,-0.349311 -3.5295,-0.09921 -3.1871,0.819749 -6.0241,3.469844 -7.71,6.210236 -0.5093,-3.385769 -1.3034,-6.855188 -3.8499,-9.33784 -0.6361,-0.620628 -2.0111,-1.960242 -2.9996,-1.71926 -1.0425,0.253922 -1.6275,2.198254 -1.8553,3.085036 -0.8946,3.484057 0.1423,6.581892 1.3782,9.803682 -4.4642,-1.712619 -9.0519,-2.786991 -13.1876,0.366345 2.167,4.742424 6.5276,6.161736 11.3561,6.960123 -2.7663,1.701935 -5.3365,4.513533 -6.2194,7.700817 -0.2722,0.982242 -0.7269,2.703411 0.1082,3.538574 0.8224,0.822366 2.5574,0.349453 3.5297,0.09935 3.1871,-0.819678 6.0239,-3.469843 7.71,-6.210236"
         id="path207-8-41-6-4-1-7"
         sodipodi:nodetypes="cccccssscssscccsssc" /><path
         style="display:inline;fill:#2e0a05;fill-opacity:1;stroke:none;stroke-width:0.25903"
         d="m 1903.0506,122.35854 c -1.1747,4.73031 -1.4356,9.3726 2.0845,13.15516 4.496,-2.61412 5.259,-7.26376 5.3851,-12.04357 3.4691,3.29064 7.2965,6.03884 12.324,4.70821 -0.2128,-5.21817 -3.6651,-8.18603 -7.828,-10.77613 3.1769,-0.50901 6.711,-2.11573 8.688,-4.74656 0.603,-0.80245 1.704,-2.22454 1.259,-3.29882 -0.445,-1.07429 -2.2291,-1.30142 -3.2229,-1.44235 -3.2582,-0.46232 -6.8933,0.90041 -9.4996,2.78702 0.8251,-3.32293 1.4191,-6.83216 0.017,-10.10031 -0.3502,-0.816843 -1.1079,-2.580663 -2.1134,-2.73632 -1.0603,-0.164349 -2.3448,1.408113 -2.8946,2.14023 -2.1598,2.87649 -2.3873,6.13532 -2.4784,9.58484 -3.469,-3.29064 -7.2964,-6.03887 -12.324,-4.70821 0.1872,5.2107 3.6727,8.19069 7.8281,10.77609 -3.207,0.51378 -6.6575,2.12779 -8.6929,4.73456 -0.6274,0.80332 -1.7062,2.21945 -1.2542,3.31064 0.4451,1.07447 2.229,1.3015 3.223,1.44253 3.2581,0.46236 6.8932,-0.90046 9.4997,-2.78702"
         id="path207-8-41-6-2-7-3-7"
         sodipodi:nodetypes="cccccssscssscccsssc" /></g><g
       id="g209"
       transform="matrix(0.80555463,0,0,0.80555463,81.871541,-22.550395)"
       inkscape:label="D style"
       style="fill:#2e0a05;fill-opacity:1"><path
         fill="#2e0a05"
         d="m 559.51653,277.76527 c 1.86,-0.075 4.246,0.197 6.141,0.348 -2.837,9.179 -6.539,20.71 -8.437,29.961 11.194,4.191 22.909,8.5 31.986,16.576 45.852,40.793 -18.475,98.642 -56.148,115.632 -6.979,3.148 -14.289,5.969 -21.414,8.814 -2.138,5.475 -3.702,12.837 -5.564,18.784 -3.619,3.854 -15.239,9.354 -20.119,7.392 -0.566,-2.631 3.547,-16.501 4.466,-20.257 -4.176,0.899 -7.592,1.73 -11.699,2.891 -2.679,5.958 -6.124,16.891 -10.503,20.928 -5.891,5.431 -14.996,6.969 -22.7,6.726 3.119,-5.164 7.28,-16.992 9.486,-22.982 -9.491,3.162 -22.192,4.912 -32.091,6.185 l -4.996,1.163 c -2.334,-3.93 -3.106,-3.792 -3.159,-8.293 -0.228,-6.041 8.238,-19.546 13.497,-21.227 16.898,-5.4 35.528,-6.28 52.925,-9.918 31.838,-6.658 64.818,-13.522 90.014,-35.546 21.778,-19.037 15.731,-38.946 -8.94,-50.545 -19.032,-8.948 -40.382,-12.629 -61.246,-12.888 -8.919,-0.121 -17.994,1.84 -26.408,1.619 l -0.656,-0.022 c 1.462,-6.252 4.482,-13.636 6.16,-19.915 3.519,-13.165 21.729,-10.878 33.267,-10.492 5.457,-18.221 5.1,-23.549 25.609,-23.872 -1.445,7.9 -5.112,15.445 -6.793,24.452 2.69,0.294 5.025,0.691 7.692,1.162 4.966,-12.334 4.167,-24.261 19.63,-26.676 z"
         id="path38-0"
         sodipodi:nodetypes="ccccccccccscccccccccccccccccc"
         style="fill:#2e0a05;fill-opacity:1" /><path
         fill="#2e0a05"
         d="m 512.24953,338.42027 c 1.297,-0.138 4.268,-0.041 5.695,-0.038 -1.806,7.62 -5.809,17.374 -8.694,24.887 l -9.586,25.574 c -1.187,3.146 -2.506,6.676 -3.625,9.826 -6.178,17.393 -6.591,22.923 -25.505,27.26 l -5.068,1.121 c 2.455,-8.751 5.608,-15.595 9.108,-23.919 l 10.198,-24.818 c 4.269,-10.559 9.449,-24.619 14.632,-34.978 1.697,-3.392 9.13,-4.431 12.845,-4.915 z"
         id="path39-1"
         style="fill:#2e0a05;fill-opacity:1" /><path
         fill="#2e0a05"
         d="m 531.21453,341.54127 c 4.054,-0.459 8.643,-0.012 12.669,0.467 -1.931,10.41 -5.774,20.222 -8.89,30.333 -2.418,8.015 -4.961,15.991 -7.627,23.926 -4.538,13.703 -3.725,15.681 -18.101,21.156 -0.729,0.252 -1.464,0.483 -2.205,0.693 -2.223,0.622 -5.873,1.604 -7.896,0.46 0.446,-2.434 2.726,-7.619 3.679,-10.2 l 8.028,-21.403 c 4.64,-12.105 9.001,-24.785 13.659,-36.911 1.563,-4.068 2.647,-6.796 6.684,-8.521 z"
         id="path40-8"
         style="fill:#2e0a05;fill-opacity:1" /></g><g
       id="g216"
       inkscape:label="reg"
       transform="translate(-3.3067174,18.738065)"><text
         xml:space="preserve"
         style="font-weight:bold;font-size:25.8746px;font-family:Ubuntu;-inkscape-font-specification:'Ubuntu, Bold';letter-spacing:0.0431244px;fill:#2e0a05;fill-opacity:1;fill-rule:evenodd;stroke:#2e0a05;stroke-width:1.48887;stroke-dasharray:none;stroke-dashoffset:0;stroke-opacity:1"
         x="613.41089"
         y="113.55367"
         id="text214"><tspan
           sodipodi:role="line"
           id="tspan214"
           x="613.41089"
           y="113.55367"
           style="font-style:normal;font-variant:normal;font-weight:normal;font-stretch:normal;font-size:25.8746px;font-family:Arial;-inkscape-font-specification:'Arial, Normal';font-variant-ligatures:normal;font-variant-caps:normal;font-variant-numeric:normal;font-variant-east-asian:normal;stroke-width:1.48887">R</tspan></text><circle
         style="fill:none;fill-opacity:1;fill-rule:evenodd;stroke:#2e0a05;stroke-width:1.48887;stroke-dasharray:none;stroke-dashoffset:0;stroke-opacity:1"
         id="path214"
         cx="623.60663"
         cy="104.29288"
         r="16.192791" /></g></g></svg>
